<svg xmlns="http://www.w3.org/2000/svg" width="46" height="38" fill="none" viewBox="0 0 46 38"><path fill="#D27C2C" d="M29.1159 24.3306C29.4295 24.6472 29.8045 24.7971 30.2408 24.7802C30.6757 24.7619 31.05 24.5944 31.3636 24.2778C31.6773 23.9611 31.8341 23.5825 31.8341 23.142C31.8341 22.7029 31.6773 22.325 31.3636 22.0083L28.1227 18.7889C28.5061 18.1907 28.7939 17.5574 28.9863 16.8889C29.1772 16.2204 29.2727 15.5167 29.2727 14.7778C29.2727 12.7019 28.55 10.951 27.1045 9.52533C25.6575 8.10104 23.9409 7.38889 21.9545 7.38889C19.9682 7.38889 18.2522 8.10104 16.8067 9.52533C15.3598 10.951 14.6364 12.7019 14.6364 14.7778C14.6364 16.8537 15.3598 18.6045 16.8067 20.0302C18.2522 21.4545 19.9682 22.1667 21.9545 22.1667C22.6864 22.1667 23.375 22.0871 24.0204 21.9281C24.6644 21.7705 25.3 21.4981 25.9273 21.1111L29.1159 24.3306ZM21.9545 19C20.8045 19 19.8204 18.5862 19.0022 17.7587C18.1825 16.9325 17.7727 15.9389 17.7727 14.7778C17.7727 13.6167 18.1825 12.6223 19.0022 11.7948C19.8204 10.9686 20.8045 10.5556 21.9545 10.5556C23.0697 10.5556 24.0455 10.9686 24.8818 11.7948C25.7182 12.6223 26.1364 13.6167 26.1364 14.7778C26.1364 15.9389 25.7272 16.9325 24.909 17.7587C24.0894 18.5862 23.1045 19 21.9545 19ZM6.27273 31.6667C5.12273 31.6667 4.13861 31.2536 3.32036 30.4274C2.50073 29.5999 2.09091 28.6056 2.09091 27.4444V4.22222C2.09091 3.06111 2.50073 2.06678 3.32036 1.23922C4.13861 0.413074 5.12273 0 6.27273 0H39.7273C40.8773 0 41.8621 0.413074 42.6817 1.23922C43.5 2.06678 43.9091 3.06111 43.9091 4.22222V27.4444C43.9091 28.6056 43.5 29.5999 42.6817 30.4274C41.8621 31.2536 40.8773 31.6667 39.7273 31.6667H6.27273ZM6.27273 27.4444H39.7273V4.22222H6.27273V27.4444ZM2.09091 38C1.49848 38 1.00224 37.7973 0.602182 37.392C0.200727 36.9881 0 36.487 0 35.8889C0 35.2907 0.200727 34.7897 0.602182 34.3858C1.00224 33.9804 1.49848 33.7778 2.09091 33.7778H43.9091C44.5015 33.7778 44.9978 33.9804 45.3978 34.3858C45.7993 34.7897 46 35.2907 46 35.8889C46 36.487 45.7993 36.9881 45.3978 37.392C44.9978 37.7973 44.5015 38 43.9091 38H2.09091ZM6.27273 4.22222V27.4444V4.22222Z"/></svg>